<svg width="22" height="22" viewBox="0 0 22 22" fill="none" xmlns="http://www.w3.org/2000/svg">
<path d="M9.85714 1.0694C9.30486 1.0694 8.85714 1.51711 8.85714 2.0694V3.30851C8.85714 3.68728 8.64314 4.03354 8.30436 4.20293L8.07324 4.31849C7.68825 4.51099 7.22328 4.43553 6.91892 4.13117L5.99282 3.20508C5.6023 2.81455 4.96913 2.81455 4.57861 3.20508L3.13568 4.648C2.74515 5.03853 2.74515 5.67169 3.13568 6.06222L4.06177 6.98831C4.36614 7.29267 4.44159 7.75765 4.2491 8.14264L4.13354 8.37375C3.96414 8.71254 3.61788 8.92654 3.23911 8.92654H2C1.44772 8.92654 1 9.37426 1 9.92654V12.2123C1 12.7645 1.44772 13.2123 2 13.2123H3.23911C3.61788 13.2123 3.96414 13.4263 4.13354 13.765L4.2491 13.9962C4.44159 14.3811 4.36614 14.8461 4.06177 15.1505L3.13568 16.0766C2.74515 16.4671 2.74515 17.1003 3.13568 17.4908L4.57861 18.9337C4.96913 19.3242 5.6023 19.3242 5.99282 18.9337L6.91892 18.0076C7.22328 17.7033 7.68825 17.6278 8.07324 17.8203L8.30436 17.9359C8.64314 18.1053 8.85714 18.4515 8.85714 18.8303V20.0694C8.85714 20.6217 9.30486 21.0694 9.85714 21.0694H12.1429C12.6951 21.0694 13.1429 20.6217 13.1429 20.0694V18.8303C13.1429 18.4515 13.3569 18.1053 13.6956 17.9359L13.9268 17.8203C14.3118 17.6278 14.7767 17.7033 15.0811 18.0076L16.0072 18.9337C16.3977 19.3242 17.0309 19.3242 17.4214 18.9337L18.8643 17.4908C19.2548 17.1003 19.2548 16.4671 18.8643 16.0766L17.9382 15.1505C17.6339 14.8461 17.5584 14.3811 17.7509 13.9962L17.8665 13.765C18.0359 13.4263 18.3821 13.2123 18.7609 13.2123H20C20.5523 13.2123 21 12.7645 21 12.2123V9.92654C21 9.37426 20.5523 8.92654 20 8.92654H18.7609C18.3821 8.92654 18.0359 8.71254 17.8665 8.37375L17.7509 8.14264C17.5584 7.75765 17.6339 7.29268 17.9382 6.98831L18.8643 6.06222C19.2548 5.67169 19.2548 5.03853 18.8643 4.648L17.4214 3.20508C17.0309 2.81455 16.3977 2.81455 16.0072 3.20508L15.0811 4.13117C14.7767 4.43553 14.3118 4.51099 13.9268 4.31849L13.6956 4.20293C13.3569 4.03354 13.1429 3.68728 13.1429 3.30851V2.0694C13.1429 1.51711 12.6951 1.0694 12.1429 1.0694H9.85714Z" stroke="black" stroke-width="1.4" stroke-linecap="round" stroke-linejoin="round"/>
<path d="M11 13.9266C12.578 13.9266 13.8571 12.6474 13.8571 11.0694C13.8571 9.49145 12.578 8.21227 11 8.21227C9.42204 8.21227 8.14285 9.49145 8.14285 11.0694C8.14285 12.6474 9.42204 13.9266 11 13.9266Z" stroke="black" stroke-width="1.4" stroke-linecap="round" stroke-linejoin="round"/>
</svg>
